<?xml version="1.0" encoding="iso-8859-1"?>
<!-- Generator: Adobe Illustrator 19.0.0, SVG Export Plug-In . SVG Version: 6.00 Build 0)  -->
<svg version="1.1" id="Capa_1" xmlns="http://www.w3.org/2000/svg" xmlns:xlink="http://www.w3.org/1999/xlink" x="0px" y="0px"
	 viewBox="0 0 423.281 423.281" style="enable-background:new 0 0 423.281 423.281;" xml:space="preserve">
<g>
	<g>
		<path d="M241.221,94.551V89.47h8.848c6.099,0,11.06-4.966,11.06-11.069V30.708c0-11.826-7.564-22.207-18.823-25.832
			c-20.208-6.501-41.577-6.502-61.803,0.001c-5.513,1.783-10.219,5.191-13.607,9.852c-3.408,4.672-5.21,10.197-5.21,15.979v47.693
			c0,6.104,4.966,11.069,11.069,11.069h8.844v5.397c-40.189,27.347-64.125,72.477-64.125,121.19v156.201
			c0,28.134,22.889,51.023,51.023,51.023h86.288c28.135,0,51.023-22.889,51.023-51.023V216.057
			C305.809,167.156,281.689,121.865,241.221,94.551z M233.221,74.436h-43.623v-8.935c0-2.298,1.87-4.168,4.168-4.168h35.287
			c2.298,0,4.168,1.87,4.168,4.168C233.221,65.501,233.221,74.436,233.221,74.436z M189.598,82.436h43.623v10.545h-43.623V82.436z
			 M236.477,100.981c3.441,2.31,6.752,4.763,9.938,7.338h-69.546c3.187-2.575,6.497-5.028,9.938-7.338H236.477z M237.472,11.775
			c-0.849,1.239-2.272,2.054-3.884,2.054h-44.365c-1.611,0-3.034-0.815-3.884-2.053C202.452,6.764,220.368,6.764,237.472,11.775z
			 M172.754,81.47c-1.692,0-3.069-1.377-3.069-3.069V30.708c0-4.075,1.271-7.97,3.677-11.269c1.28-1.76,2.833-3.257,4.589-4.469
			c2.121,4.07,6.373,6.86,11.272,6.86h44.365c4.9,0,9.153-2.792,11.273-6.865c5.089,3.502,8.267,9.315,8.267,15.743v47.693
			c0,1.692-1.372,3.069-3.06,3.069h-8.848V65.501c0-6.709-5.459-12.168-12.168-12.168h-35.286c-6.709,0-12.168,5.458-12.168,12.168
			V81.47H172.754z M167.814,116.319h87.657c26.853,25.864,42.339,61.641,42.339,99.738v1.624H125.474v-1.624
			C125.474,177.96,140.96,142.183,167.814,116.319z M297.809,225.68v85.365H125.474V225.68H297.809z M254.786,415.281h-86.289
			c-23.723,0-43.023-19.3-43.023-43.023v-53.212h172.335v53.212C297.809,395.981,278.509,415.281,254.786,415.281z"/>
		<path d="M286.168,330.022c-2.209,0-4,1.791-4,4v33.857c0,16.247-13.218,29.465-29.465,29.465c-2.209,0-4,1.791-4,4s1.791,4,4,4
			c20.658,0,37.465-16.807,37.465-37.465v-33.857C290.168,331.813,288.376,330.022,286.168,330.022z"/>
		<path d="M282.182,208.529c0.18,2.084,1.927,3.656,3.98,3.656c0.115,0,0.231-0.005,0.349-0.015c2.201-0.19,3.831-2.128,3.642-4.329
			c-2.139-24.803-10.776-48.561-24.979-68.705c-1.272-1.805-3.767-2.238-5.574-0.964c-1.806,1.273-2.237,3.769-0.965,5.574
			C272.023,162.734,280.164,185.136,282.182,208.529z"/>
	</g>
</g>
<g>
</g>
<g>
</g>
<g>
</g>
<g>
</g>
<g>
</g>
<g>
</g>
<g>
</g>
<g>
</g>
<g>
</g>
<g>
</g>
<g>
</g>
<g>
</g>
<g>
</g>
<g>
</g>
<g>
</g>
</svg>
