<?xml version="1.0" encoding="iso-8859-1"?>
<!-- Generator: Adobe Illustrator 19.0.0, SVG Export Plug-In . SVG Version: 6.00 Build 0)  -->
<svg version="1.1" id="Capa_1" xmlns="http://www.w3.org/2000/svg" xmlns:xlink="http://www.w3.org/1999/xlink" x="0px" y="0px"
	 viewBox="0 0 428.643 428.643" style="enable-background:new 0 0 428.643 428.643;" xml:space="preserve">
<g>
	<g>
		<path d="M345.479,149.833v-8.727c0-12.231-9.698-22.235-21.809-22.736c-5.16-13.478-16.799-23.645-31-26.859l-14.272-3.231
			c-22.147-5.011-37.616-24.37-37.616-47.078V24.041c2.903-2.264,4.78-5.784,4.78-9.742C245.562,6.415,239.148,0,231.264,0h-33.887
			c-7.885,0-14.299,6.415-14.299,14.299c0,3.958,1.877,7.478,4.779,9.741v17.162c0,22.709-15.468,42.068-37.615,47.078
			l-14.273,3.231c-14.201,3.215-25.84,13.381-31,26.859c-12.11,0.504-21.806,10.507-21.806,22.736v8.727
			c0,6.482,4.034,12.03,9.719,14.293v28.281c-5.746,2.826-9.719,8.723-9.719,15.546c0,6.824,3.975,12.722,9.722,15.547v114.026
			c-3.486,2.601-5.801,7.594-5.801,13.458c0,5.862,2.313,10.855,5.798,13.456v11.822c-5.742,2.788-9.719,8.66-9.719,15.459v7.364
			c0,16.297,13.259,29.556,29.557,29.556h20.037v0.002h163.126v-0.002h20.041c16.298,0,29.557-13.259,29.557-29.556v-7.364
			c0-6.801-3.979-12.674-9.723-15.46v-11.817c3.487-2.6,5.803-7.595,5.803-13.459c0-5.866-2.317-10.862-5.806-13.462V223.502
			c5.749-2.824,9.726-8.723,9.726-15.549c0-6.825-3.975-12.723-9.723-15.547v-28.278
			C341.445,161.865,345.479,156.317,345.479,149.833z M195.857,26.659h36.925v14.543c0,2.086,0.125,4.144,0.344,6.175h-37.612
			c0.219-2.031,0.344-4.089,0.344-6.175V26.659H195.857z M197.376,8h33.887c3.474,0,6.299,2.826,6.299,6.299
			c0,2.404-1.956,4.36-4.36,4.36h-37.764c-2.404,0-4.36-1.956-4.36-4.36C191.078,10.826,193.902,8,197.376,8z M194.075,55.377
			h40.489c1.421,5.541,3.661,10.763,6.604,15.521h-53.696C190.414,66.14,192.655,60.919,194.075,55.377z M337.479,399.085
			c0,11.886-9.67,21.556-21.557,21.556H112.72c-11.887,0.001-21.557-9.669-21.557-21.556v-7.364c0-5.068,4.123-9.191,9.191-9.191
			h22.126c2.209,0,4-1.791,4-4s-1.791-4-4-4h-21.598v-8.163h39.623c2.209,0,4-1.791,4-4s-1.791-4-4-4H98.47
			c-1.193,0-3.386-2.803-3.386-7.382s2.192-7.382,3.386-7.382h123.035c2.209,0,4-1.791,4-4s-1.791-4-4-4h-120.62V225.284h226.87
			v110.318h-79.25c-2.209,0-4,1.791-4,4s1.791,4,4,4h81.669c1.194,0,3.387,2.803,3.387,7.382s-2.192,7.382-3.387,7.382H169.505
			c-2.209,0-4,1.791-4,4s1.791,4,4,4h158.253v8.163h-25.253c-2.209,0-4,1.791-4,4s1.791,4,4,4h25.784
			c5.068,0,9.191,4.123,9.191,9.191V399.085L337.479,399.085z M328.148,217.284H100.494c-5.146,0-9.331-4.186-9.331-9.331
			s4.186-9.331,9.331-9.331h132.011c2.209,0,4-1.791,4-4s-1.791-4-4-4H100.882v-25.4h70.623c2.209,0,4-1.791,4-4s-1.791-4-4-4
			H98.553c-4.074,0-7.39-3.315-7.39-7.39v-8.727c0-8.139,6.622-14.76,14.761-14.76h24.557c2.209,0,4-1.791,4-4s-1.791-4-4-4h-16.769
			c4.672-9.548,13.475-16.645,24.023-19.032l14.273-3.231c11.758-2.659,21.893-8.797,29.453-17.185h65.719
			c7.561,8.387,17.695,14.524,29.453,17.185l14.272,3.231c10.549,2.388,19.351,9.484,24.023,19.032h-16.448c-2.209,0-4,1.791-4,4
			s1.791,4,4,4h24.239c8.139,0,14.761,6.622,14.761,14.76v8.727c0,4.075-3.315,7.39-7.39,7.39H200.505c-2.209,0-4,1.791-4,4
			s1.791,4,4,4h127.253v25.4h-67.253c-2.209,0-4,1.791-4,4s1.791,4,4,4h67.645c5.146,0,9.331,4.186,9.331,9.331
			S333.294,217.284,328.148,217.284z"/>
		<path d="M313.505,331.271c2.209,0,4-1.791,4-4v-94c0-2.209-1.791-4-4-4c-2.209,0-4,1.791-4,4v94
			C309.505,329.479,311.296,331.271,313.505,331.271z"/>
		<path d="M313.505,186.271c2.209,0,4-1.791,4-4v-8c0-2.209-1.791-4-4-4c-2.209,0-4,1.791-4,4v8
			C309.505,184.479,311.296,186.271,313.505,186.271z"/>
		<path d="M325.005,152.521c2.209,0,4-1.791,4-4v-11.5c0-2.209-1.791-4-4-4c-2.209,0-4,1.791-4,4v11.5
			C321.005,150.729,322.796,152.521,325.005,152.521z"/>
	</g>
</g>
<g>
</g>
<g>
</g>
<g>
</g>
<g>
</g>
<g>
</g>
<g>
</g>
<g>
</g>
<g>
</g>
<g>
</g>
<g>
</g>
<g>
</g>
<g>
</g>
<g>
</g>
<g>
</g>
<g>
</g>
</svg>
